# Blender v242 OBJ File: bign.blend
# www.blender3d.org
mtllib bign.mtl
o Cube_Cube
v -0.950503 -0.969333 0.089109
v -0.950503 -2.969333 0.089109
v -2.950504 -2.969333 0.089109
v -2.914736 -0.910975 0.153551
v -0.948513 -0.910976 3.025272
v -0.950504 -2.969334 3.124337
v -2.950504 -2.969333 3.124337
v -2.914736 -0.910975 3.025272
v -2.950504 -2.969333 6.078523
v -2.950503 -0.969333 6.078523
v -0.950504 -2.969334 6.078523
v -0.950503 -0.969334 6.078523
v 1.069453 -0.969335 3.124337
v 1.069452 -2.969335 3.124337
v 1.069453 -0.969335 0.069153
v 1.069452 -2.969335 0.069153
v 3.064158 -2.969337 0.069153
v 3.064159 -0.969336 0.069153
v 3.064158 -2.969337 3.124337
v 3.064159 -0.969336 3.124337
v 3.064158 -2.969337 6.053273
v 3.064159 -0.969336 6.053273
v 1.069453 -0.969335 6.053273
v 1.069452 -2.969335 6.053273
v 1.069454 1.044017 2.989477
v 3.064161 1.044016 2.989477
v 1.069454 1.044017 0.060541
v 3.064161 1.044016 0.060541
v 3.064162 3.057368 0.060541
v 1.069455 3.057369 0.060541
v 3.064162 3.057368 2.989477
v 1.069455 3.057369 2.989477
v 3.064162 3.057368 6.111631
v 1.069455 3.057369 6.111631
v 1.069454 1.044017 6.111631
v 3.064161 1.044016 6.111631
v -0.948512 1.044018 3.188168
v -0.948511 3.057370 3.188168
v -0.948512 1.044018 0.066013
v -0.948511 3.057370 0.066013
v -2.914735 1.044019 0.066013
v -2.914734 3.057371 0.066013
v -2.914734 3.057371 3.188168
v -2.914735 1.044019 3.188168
v -2.914735 1.044019 6.059889
v -2.914734 3.057371 6.059889
v -0.948512 1.044018 6.059889
v -0.948511 3.057370 6.059889
vn 1.000000 0.000056 -0.000679
vn 1.000000 -0.000001 0.000000
vn -0.000001 -0.840653 0.541574
vn -0.833889 -0.025728 -0.551332
vn -0.825911 0.000000 -0.563800
vn 0.029040 0.999380 -0.019883
vn 0.000001 1.000000 0.000000
vn -1.000000 0.000001 0.000000
vn -0.000001 -1.000000 0.000000
vn -0.822978 0.000000 0.568073
vn 1.000000 -0.000000 0.000000
vn 0.027965 0.999426 0.019121
vn 0.028908 0.999582 0.000000
vn 0.825480 -0.000000 0.564431
vn -0.999794 0.016825 -0.011390
vn -1.000000 0.000000 0.000000
vn -0.999849 0.017374 -0.000000
vn 1.000000 0.000000 -0.000678
vn 1.000000 -0.000967 0.000000
vn 0.000000 0.000000 1.000000
vn 0.000000 0.000000 -1.000000
vn -0.031829 0.031829 -0.998986
vn 0.000000 1.000000 0.000000
vn -0.000000 -0.835705 -0.549178
vn -0.000000 -1.000000 0.000000
vn 0.000001 0.999817 0.019110
vn 0.000000 0.999817 0.019110
vn 0.822978 -0.000000 -0.568073
vn 0.007041 0.838549 -0.544781
vn 0.000001 0.840653 -0.541574
vn 0.000000 0.835705 0.549178
usemtl Material
s off
f 5//1 1//1 37//1
f 5//2 37//2 47//2
f 47//3 45//3 8//3
f 47//3 8//3 5//3
f 6//4 5//4 16//4
f 5//5 15//5 16//5
f 5//6 1//6 4//6
f 5//7 4//7 8//7
usemtl Material.001
f 45//8 44//8 8//8
f 44//8 4//8 8//8
f 37//2 38//2 48//2
f 37//2 48//2 47//2
f 43//8 44//8 45//8
f 43//8 45//8 46//8
f 42//8 41//8 44//8
f 42//8 44//8 43//8
f 25//9 35//9 37//9
f 25//9 37//9 39//9
f 35//10 34//10 37//10
f 34//10 38//10 37//10
f 26//2 31//2 33//2
f 26//2 33//2 36//2
f 27//8 25//8 32//8
f 27//8 32//8 30//8
f 26//2 28//2 29//2
f 26//2 29//2 31//2
f 22//2 20//2 26//2
f 20//2 28//2 26//2
f 13//8 23//8 25//8
f 13//8 25//8 27//8
f 13//8 14//8 24//8
f 13//8 24//8 23//8
f 19//11 20//11 22//11
f 19//11 22//11 21//11
f 17//11 18//11 20//11
f 17//11 20//11 19//11
f 5//12 12//12 13//12
f 5//13 13//13 15//13
f 12//14 11//14 14//14
f 12//14 14//14 13//14
f 8//15 7//15 10//15
f 7//16 9//16 10//16
f 3//17 7//17 8//17
f 3//17 8//17 4//17
f 1//18 5//18 2//18
f 5//19 6//19 2//19
usemtl Material.002
f 47//20 48//20 46//20
f 47//20 46//20 45//20
f 40//21 39//21 42//21
f 39//21 41//21 42//21
f 35//20 36//20 34//20
f 36//20 33//20 34//20
f 28//21 27//21 30//21
f 28//21 30//21 29//21
f 23//20 24//20 22//20
f 24//20 21//20 22//20
f 16//21 15//21 18//21
f 16//21 18//21 17//21
f 12//20 10//20 9//20
f 12//20 9//20 11//20
f 1//21 2//21 3//21
f 1//22 3//22 4//22
usemtl Material.003
f 38//23 43//23 46//23
f 38//23 46//23 48//23
f 39//9 37//9 44//9
f 39//9 44//9 41//9
f 38//23 40//23 42//23
f 38//23 42//23 43//23
f 34//7 32//7 38//7
f 32//7 40//7 38//7
f 25//9 26//9 36//9
f 25//9 36//9 35//9
f 31//23 32//23 34//23
f 31//23 34//23 33//23
f 29//23 30//23 32//23
f 29//23 32//23 31//23
f 20//24 13//24 27//24
f 20//24 27//24 28//24
f 14//9 19//9 21//9
f 14//9 21//9 24//9
f 15//7 13//7 20//7
f 15//7 20//7 18//7
f 14//9 16//9 17//9
f 14//9 17//9 19//9
f 11//25 6//25 14//25
f 6//25 16//25 14//25
f 5//26 8//26 12//26
f 8//27 10//27 12//27
f 7//25 6//25 11//25
f 7//25 11//25 9//25
f 2//25 6//25 3//25
f 6//25 7//25 3//25
usemtl Material
f 32//28 25//28 39//28
f 32//28 39//28 40//28
f 1//29 4//29 37//29
f 4//30 44//30 37//30
f 23//31 22//31 26//31
f 23//31 26//31 25//31
