# Blender v242 OBJ File: g.blend
# www.blender3d.org
mtllib g.mtl
o Font_Mesh
v 2.505739 -0.963956 3.038172
v 0.596013 -0.963956 3.038171
v 0.596013 -0.963956 2.304302
v 1.688476 -0.963956 2.304303
v 1.688477 -0.963956 1.136784
v 1.491651 -0.963956 1.076671
v 1.292508 -0.963956 1.022812
v 1.090123 -0.963956 0.977293
v 0.883568 -0.963956 0.942198
v 0.671917 -0.963956 0.919612
v 0.454243 -0.963956 0.911620
v -0.185344 -0.963956 0.983586
v -0.742927 -0.963955 1.189909
v -1.203216 -0.963955 1.516227
v -1.550923 -0.963955 1.948178
v -1.770760 -0.963955 2.471399
v -1.847436 -0.963955 3.071528
v -1.770683 -0.963955 3.661310
v -1.553086 -0.963955 4.184377
v -1.213641 -0.963955 4.622660
v -0.771343 -0.963955 4.958090
v -0.245187 -0.963955 5.172598
v 0.345830 -0.963955 5.248116
v 0.688286 -0.963955 5.232210
v 1.031206 -0.963955 5.184798
v 1.373663 -0.963955 5.106346
v 1.714730 -0.963955 4.997316
v 2.053480 -0.963956 4.858171
v 2.388987 -0.963956 4.689376
v 2.388987 -0.963956 5.514978
v 1.975375 -0.963955 5.681110
v 1.615274 -0.963955 5.807166
v 1.291311 -0.963955 5.897548
v 0.986112 -0.963955 5.956658
v 0.682302 -0.963955 5.988896
v 0.362509 -0.963955 5.998664
v -0.465874 -0.963955 5.896390
v -1.199742 -0.963955 5.605784
v -1.814079 -0.963955 5.151170
v -2.283866 -0.963955 4.556871
v -2.584085 -0.963955 3.847210
v -2.689717 -0.963955 3.046510
v -2.586517 -0.963955 2.253648
v -2.292205 -0.963955 1.557152
v -1.829715 -0.963955 0.978335
v -1.221980 -0.963955 0.538508
v -0.491933 -0.963956 0.258983
v 0.337491 -0.963956 0.161073
v 0.720487 -0.963956 0.172501
v 1.083097 -0.963956 0.208020
v 1.434124 -0.963956 0.269485
v 1.782372 -0.963956 0.358748
v 2.136643 -0.963956 0.477662
v 2.505739 -0.963956 0.628080
v 2.505740 0.927648 0.628080
v 2.136643 0.927648 0.477662
v 1.782373 0.927648 0.358748
v 1.434124 0.927648 0.269485
v 1.083097 0.927648 0.208020
v 0.720487 0.927648 0.172501
v 0.337491 0.927648 0.161072
v -0.491933 0.927648 0.258983
v -1.221979 0.927648 0.538508
v -1.829714 0.927648 0.978335
v -2.292205 0.927648 1.557152
v -2.586517 0.927648 2.253648
v -2.689717 0.927648 3.046510
v -2.584085 0.927648 3.847210
v -2.283866 0.927649 4.556871
v -1.814079 0.927649 5.151170
v -1.199742 0.927648 5.605784
v -0.465873 0.927648 5.896390
v 0.362509 0.927648 5.998663
v 0.682302 0.927648 5.988896
v 0.986112 0.927648 5.956657
v 1.291312 0.927648 5.897548
v 1.615274 0.927648 5.807166
v 1.975375 0.927648 5.681109
v 2.388987 0.927648 5.514977
v 2.388987 0.927648 4.689376
v 2.053480 0.927648 4.858171
v 1.714730 0.927648 4.997316
v 1.373663 0.927648 5.106346
v 1.031207 0.927648 5.184798
v 0.688287 0.927648 5.232209
v 0.345830 0.927648 5.248116
v -0.245187 0.927648 5.172598
v -0.771343 0.927648 4.958089
v -1.213641 0.927648 4.622660
v -1.553086 0.927648 4.184377
v -1.770683 0.927648 3.661310
v -1.847436 0.927648 3.071528
v -1.770759 0.927648 2.471399
v -1.550923 0.927648 1.948178
v -1.203216 0.927648 1.516227
v -0.742926 0.927648 1.189909
v -0.185344 0.927648 0.983586
v 0.454243 0.927648 0.911620
v 0.671917 0.927648 0.919612
v 0.883569 0.927648 0.942198
v 1.090123 0.927648 0.977293
v 1.292509 0.927648 1.022812
v 1.491651 0.927648 1.076671
v 1.688477 0.927648 1.136784
v 1.688477 0.927648 2.304302
v 0.596013 0.927648 2.304302
v 0.596013 0.927648 3.038171
v 2.505739 0.927648 3.038171
vn -0.000000 -1.000000 0.000001
vn -0.000000 -1.000000 0.000000
vn -0.000000 -1.000000 -0.000001
vn -0.000000 -1.000000 0.000002
vn 0.000000 1.000000 0.000001
vn 0.000000 1.000000 -0.000000
vn 0.000000 1.000000 -0.000001
vn 0.000000 1.000000 -0.000002
vn -0.000000 0.000000 1.000000
vn 1.000000 -0.000000 0.000000
vn -1.000000 0.000000 -0.000000
vn 0.000000 -0.000000 -1.000000
vn -0.292094 0.000000 0.956390
vn -0.261074 0.000000 0.965319
vn -0.219432 0.000000 0.975628
vn -0.219433 0.000000 0.975628
vn -0.167506 0.000000 0.985871
vn -0.106111 0.000000 0.994354
vn -0.036691 0.000000 0.999327
vn -0.036690 0.000000 0.999327
vn 0.111814 0.000000 0.993729
vn 0.347035 0.000000 0.937852
vn 0.578347 -0.000000 0.815791
vn 0.778977 -0.000000 0.627053
vn 0.921930 -0.000000 0.387357
vn 0.991936 -0.000000 0.126736
vn 0.991638 -0.000000 -0.129050
vn 0.991638 -0.000000 -0.129051
vn 0.923295 -0.000000 -0.384093
vn 0.923295 -0.000000 -0.384092
vn 0.790611 -0.000000 -0.612319
vn 0.790610 -0.000000 -0.612319
vn 0.604265 -0.000000 -0.796784
vn 0.604265 -0.000000 -0.796783
vn 0.377522 -0.000000 -0.926001
vn 0.377521 -0.000000 -0.926001
vn 0.126746 -0.000000 -0.991935
vn -0.046399 0.000000 -0.998923
vn -0.046398 -0.000000 -0.998923
vn -0.136954 -0.000000 -0.990577
vn -0.136955 0.000000 -0.990577
vn -0.223303 0.000000 -0.974749
vn -0.223302 -0.000000 -0.974749
vn -0.304493 -0.000000 -0.952515
vn -0.379954 -0.000000 -0.925006
vn -0.379955 0.000000 -0.925005
vn -0.449432 0.000000 -0.893315
vn 0.372719 0.000000 0.927944
vn 0.330400 0.000000 0.943841
vn 0.330399 -0.000000 0.943841
vn 0.268727 -0.000000 0.963216
vn 0.190141 -0.000000 0.981757
vn 0.190142 0.000000 0.981757
vn 0.105522 0.000000 0.994417
vn 0.105520 -0.000000 0.994417
vn 0.030529 -0.000000 0.999534
vn 0.030530 0.000000 0.999534
vn -0.122531 0.000000 0.992465
vn -0.122532 0.000000 0.992465
vn -0.368175 0.000000 0.929756
vn -0.594848 0.000000 0.803839
vn -0.594847 0.000000 0.803839
vn -0.784495 0.000000 0.620135
vn -0.920978 0.000000 0.389615
vn -0.991410 0.000000 0.130792
vn -0.991635 0.000000 -0.129073
vn -0.921138 0.000000 -0.389237
vn -0.781240 0.000000 -0.624231
vn -0.586285 0.000000 -0.810105
vn -0.357572 -0.000000 -0.933886
vn -0.117233 -0.000000 -0.993104
vn 0.029826 -0.000000 -0.999555
vn 0.097489 -0.000000 -0.995237
vn 0.172475 -0.000000 -0.985014
vn 0.248293 -0.000000 -0.968685
vn 0.318211 -0.000000 -0.948020
vn 0.377396 -0.000000 -0.926052
usemtl Material
s off
f 37//1 35//1 36//1
f 37//2 34//2 35//2
f 37//3 33//3 34//3
f 37//2 32//2 33//2
f 38//2 32//2 37//2
f 38//2 31//2 32//2
f 38//2 30//2 31//2
f 39//2 30//2 38//2
f 39//2 23//2 30//2
f 23//2 24//2 30//2
f 24//2 25//2 30//2
f 25//2 26//2 30//2
f 26//2 27//2 30//2
f 27//2 28//2 30//2
f 28//2 29//2 30//2
f 39//2 22//2 23//2
f 39//2 21//2 22//2
f 40//2 21//2 39//2
f 40//2 20//2 21//2
f 40//2 19//2 20//2
f 41//2 19//2 40//2
f 41//2 18//2 19//2
f 42//2 18//2 41//2
f 42//2 17//2 18//2
f 42//2 16//2 17//2
f 43//2 16//2 42//2
f 3//2 1//2 2//2
f 4//2 1//2 3//2
f 54//2 1//2 4//2
f 43//2 15//2 16//2
f 5//2 54//2 4//2
f 44//2 15//2 43//2
f 44//2 14//2 15//2
f 45//2 14//2 44//2
f 45//2 13//2 14//2
f 45//2 12//2 13//2
f 6//2 54//2 5//2
f 7//2 54//2 6//2
f 8//2 54//2 7//2
f 45//2 11//2 12//2
f 46//2 11//2 45//2
f 9//2 54//2 8//2
f 10//2 54//2 9//2
f 11//3 54//3 10//3
f 46//2 54//2 11//2
f 46//2 53//2 54//2
f 47//2 53//2 46//2
f 47//2 52//2 53//2
f 47//2 51//2 52//2
f 47//2 50//2 51//2
f 48//2 50//2 47//2
f 48//4 49//4 50//4
f 74//5 72//5 73//5
f 75//6 72//6 74//6
f 76//6 72//6 75//6
f 77//6 72//6 76//6
f 77//6 71//6 72//6
f 78//6 71//6 77//6
f 79//6 71//6 78//6
f 79//6 70//6 71//6
f 86//7 70//7 79//7
f 85//6 86//6 79//6
f 84//6 85//6 79//6
f 83//6 84//6 79//6
f 82//6 83//6 79//6
f 81//6 82//6 79//6
f 80//6 81//6 79//6
f 87//6 70//6 86//6
f 88//6 70//6 87//6
f 88//6 69//6 70//6
f 89//6 69//6 88//6
f 90//6 69//6 89//6
f 90//6 68//6 69//6
f 91//6 68//6 90//6
f 91//6 67//6 68//6
f 92//6 67//6 91//6
f 93//6 67//6 92//6
f 93//6 66//6 67//6
f 106//6 107//6 108//6
f 105//6 106//6 108//6
f 55//6 105//6 108//6
f 94//6 66//6 93//6
f 55//6 104//6 105//6
f 94//6 65//6 66//6
f 95//6 65//6 94//6
f 95//6 64//6 65//6
f 96//6 64//6 95//6
f 97//6 64//6 96//6
f 55//6 103//6 104//6
f 55//6 102//6 103//6
f 55//6 101//6 102//6
f 98//6 64//6 97//6
f 98//6 63//6 64//6
f 55//6 100//6 101//6
f 55//6 99//6 100//6
f 55//5 98//5 99//5
f 55//6 63//6 98//6
f 56//6 63//6 55//6
f 56//6 62//6 63//6
f 57//6 62//6 56//6
f 58//6 62//6 57//6
f 59//6 62//6 58//6
f 59//6 61//6 62//6
f 60//8 61//8 59//8
f 1//9 108//9 107//9
f 1//9 107//9 2//9
f 108//10 1//10 54//10
f 108//10 54//10 55//10
f 2//11 107//11 106//11
f 2//11 106//11 3//11
f 3//12 106//12 105//12
f 3//12 105//12 4//12
f 4//11 105//11 104//11
f 4//11 104//11 5//11
f 5//13 104//13 103//13
f 5//13 103//13 6//13
f 6//14 103//14 102//14
f 6//14 102//14 7//14
f 7//15 102//15 101//15
f 7//16 101//16 8//16
f 8//17 101//17 100//17
f 8//17 100//17 9//17
f 9//18 100//18 99//18
f 9//18 99//18 10//18
f 10//19 99//19 98//19
f 10//20 98//20 11//20
f 11//21 98//21 97//21
f 11//21 97//21 12//21
f 12//22 97//22 96//22
f 12//22 96//22 13//22
f 13//23 96//23 95//23
f 13//23 95//23 14//23
f 14//24 95//24 94//24
f 14//24 94//24 15//24
f 15//25 94//25 93//25
f 15//25 93//25 16//25
f 16//26 93//26 92//26
f 16//26 92//26 17//26
f 17//27 92//27 91//27
f 17//28 91//28 18//28
f 18//29 91//29 90//29
f 18//30 90//30 19//30
f 19//31 90//31 89//31
f 19//32 89//32 20//32
f 20//33 89//33 88//33
f 20//34 88//34 21//34
f 21//35 88//35 87//35
f 21//36 87//36 22//36
f 22//37 87//37 86//37
f 22//37 86//37 23//37
f 23//38 86//38 85//38
f 23//39 85//39 24//39
f 24//40 85//40 84//40
f 24//41 84//41 25//41
f 25//42 84//42 83//42
f 25//43 83//43 26//43
f 26//44 83//44 82//44
f 26//44 82//44 27//44
f 27//45 82//45 81//45
f 27//46 81//46 28//46
f 28//47 81//47 80//47
f 28//47 80//47 29//47
f 29//10 80//10 79//10
f 29//10 79//10 30//10
f 30//48 79//48 78//48
f 30//48 78//48 31//48
f 31//49 78//49 77//49
f 31//50 77//50 32//50
f 32//51 77//51 76//51
f 32//51 76//51 33//51
f 33//52 76//52 75//52
f 33//53 75//53 34//53
f 34//54 75//54 74//54
f 34//55 74//55 35//55
f 35//56 74//56 73//56
f 35//57 73//57 36//57
f 36//58 73//58 72//58
f 36//59 72//59 37//59
f 37//60 72//60 71//60
f 37//60 71//60 38//60
f 38//61 71//61 70//61
f 38//62 70//62 39//62
f 39//63 70//63 69//63
f 39//63 69//63 40//63
f 40//64 69//64 68//64
f 40//64 68//64 41//64
f 41//65 68//65 67//65
f 41//65 67//65 42//65
f 42//66 67//66 66//66
f 42//66 66//66 43//66
f 43//67 66//67 65//67
f 43//67 65//67 44//67
f 44//68 65//68 64//68
f 44//68 64//68 45//68
f 45//69 64//69 63//69
f 45//69 63//69 46//69
f 46//70 63//70 62//70
f 46//70 62//70 47//70
f 47//71 62//71 61//71
f 47//71 61//71 48//71
f 48//72 61//72 60//72
f 48//72 60//72 49//72
f 49//73 60//73 59//73
f 49//73 59//73 50//73
f 50//74 59//74 58//74
f 50//74 58//74 51//74
f 51//75 58//75 57//75
f 51//75 57//75 52//75
f 52//76 57//76 56//76
f 52//76 56//76 53//76
f 53//77 56//77 55//77
f 53//77 55//77 54//77
