# Blender v242 OBJ File: u.blend
# www.blender3d.org
mtllib u.mtl
o Font.001_Mesh.001
v 2.381159 -0.941274 5.739456
v 1.576544 -0.941274 5.739456
v 1.576544 -0.941274 2.479945
v 1.570348 -0.941274 2.226830
v 1.548872 -0.941274 1.993101
v 1.507782 -0.941274 1.778986
v 1.442746 -0.941274 1.584712
v 1.349429 -0.941274 1.410508
v 1.223499 -0.941274 1.256602
v 1.080578 -0.941274 1.134777
v 0.906640 -0.941274 1.026408
v 0.702141 -0.941274 0.935372
v 0.467538 -0.941274 0.865546
v 0.203286 -0.941274 0.820807
v -0.090158 -0.941274 0.805033
v -0.325522 -0.941274 0.818071
v -0.547201 -0.941274 0.857336
v -0.755197 -0.941274 0.923057
v -0.949508 -0.941274 1.015461
v -1.130136 -0.941274 1.134777
v -1.297080 -0.941274 1.281233
v -1.410390 -0.941274 1.410851
v -1.497473 -0.941274 1.551871
v -1.560838 -0.941274 1.714329
v -1.602992 -0.941274 1.908261
v -1.626444 -0.941274 2.143701
v -1.633704 -0.941274 2.430683
v -1.633704 -0.941274 5.739456
v -2.438319 -0.941274 5.739456
v -2.438319 -0.941274 2.258265
v -2.347701 -0.941274 1.565631
v -2.096525 -0.941274 1.011204
v -1.715808 -0.941274 0.589511
v -1.236567 -0.941274 0.295079
v -0.689818 -0.941274 0.122433
v -0.106578 -0.941274 0.066101
v 0.656414 -0.941274 0.139348
v 1.279147 -0.941274 0.351031
v 1.762303 -0.941274 0.689062
v 2.106568 -0.941274 1.141353
v 2.312625 -0.941274 1.695818
v 2.381159 -0.941274 2.340369
v 2.312625 0.923377 1.695818
v 2.381159 0.923377 2.340369
v 2.106568 0.923377 1.141353
v 1.762303 0.923377 0.689061
v 1.279147 0.923377 0.351030
v 0.656414 0.923377 0.139348
v -0.106578 0.923377 0.066101
v -0.689818 0.923377 0.122433
v -1.236567 0.923377 0.295078
v -1.715808 0.923377 0.589511
v -2.096525 0.923377 1.011204
v -2.347701 0.923377 1.565631
v -2.438319 0.923377 2.258265
v -2.438319 0.923377 5.739456
v -1.633704 0.923377 5.739456
v -1.633704 0.923377 2.430683
v -1.626444 0.923377 2.143700
v -1.602992 0.923377 1.908261
v -1.560838 0.923377 1.714329
v -1.497473 0.923377 1.551871
v -1.410390 0.923377 1.410850
v -1.297080 0.923377 1.281233
v -1.130136 0.923377 1.134777
v -0.949508 0.923377 1.015461
v -0.755197 0.923377 0.923056
v -0.547201 0.923377 0.857336
v -0.325522 0.923377 0.818070
v -0.090158 0.923377 0.805033
v 0.203286 0.923377 0.820807
v 0.467538 0.923377 0.865546
v 0.702141 0.923377 0.935372
v 0.906640 0.923377 1.026408
v 1.080578 0.923377 1.134777
v 1.223499 0.923377 1.256602
v 1.349429 0.923377 1.410508
v 1.442746 0.923377 1.584712
v 1.507782 0.923377 1.778986
v 1.548872 0.923377 1.993101
v 1.570348 0.923377 2.226830
v 1.576544 0.923377 2.479945
v 1.576544 0.923377 5.739456
v 2.381159 0.923377 5.739456
vn 0.000000 -1.000000 0.000000
vn 0.000000 1.000000 0.000000
vn 0.000000 0.000000 1.000000
vn 1.000000 0.000000 0.000000
vn -1.000000 0.000000 0.000000
vn -0.999701 0.000000 0.024472
vn -0.995805 0.000000 0.091497
vn -0.982080 0.000000 0.188466
vn -0.948275 0.000000 0.317451
vn -0.948274 0.000000 0.317452
vn -0.881494 0.000000 0.472196
vn -0.773940 0.000000 0.633258
vn -0.773941 0.000000 0.633258
vn -0.648705 0.000000 0.761040
vn -0.528798 0.000000 0.848748
vn -0.406689 0.000000 0.913566
vn -0.285267 0.000000 0.958448
vn -0.166928 0.000000 0.985969
vn -0.053679 0.000000 0.998558
vn 0.055309 0.000000 0.998469
vn 0.174412 0.000000 0.984673
vn 0.301290 0.000000 0.953533
vn 0.301289 0.000000 0.953533
vn 0.429460 0.000000 0.903086
vn 0.551170 0.000000 0.834393
vn 0.659474 0.000000 0.751728
vn 0.752877 0.000000 0.658161
vn 0.850846 0.000000 0.525415
vn 0.931644 0.000000 0.363372
vn 0.977182 0.000000 0.212406
vn 0.995075 0.000000 0.099122
vn 0.999680 0.000000 0.025290
vn -0.991550 0.000000 -0.129725
vn -0.910883 -0.000000 -0.412664
vn -0.742249 -0.000000 -0.670125
vn -0.523471 -0.000000 -0.852043
vn -0.301112 -0.000000 -0.953589
vn -0.096138 -0.000000 -0.995368
vn 0.095560 -0.000000 -0.995424
vn 0.321840 -0.000000 -0.946794
vn 0.573259 -0.000000 -0.819374
vn 0.795719 -0.000000 -0.605666
vn 0.937363 -0.000000 -0.348355
vn 0.994395 -0.000000 -0.105732
usemtl Material
s off
f 30//1 28//1 29//1
f 30//1 27//1 28//1
f 3//1 1//1 2//1
f 42//1 1//1 3//1
f 4//1 42//1 3//1
f 30//1 26//1 27//1
f 4//1 41//1 42//1
f 31//1 26//1 30//1
f 5//1 41//1 4//1
f 31//1 25//1 26//1
f 6//1 41//1 5//1
f 31//1 24//1 25//1
f 7//1 41//1 6//1
f 31//1 23//1 24//1
f 7//1 40//1 41//1
f 8//1 40//1 7//1
f 32//1 23//1 31//1
f 32//1 22//1 23//1
f 32//1 21//1 22//1
f 9//1 40//1 8//1
f 32//1 20//1 21//1
f 10//1 40//1 9//1
f 10//1 39//1 40//1
f 32//1 19//1 20//1
f 11//1 39//1 10//1
f 12//1 39//1 11//1
f 32//1 18//1 19//1
f 33//1 18//1 32//1
f 13//1 39//1 12//1
f 33//1 17//1 18//1
f 14//1 39//1 13//1
f 33//1 16//1 17//1
f 15//1 39//1 14//1
f 33//1 15//1 16//1
f 33//1 39//1 15//1
f 33//1 38//1 39//1
f 34//1 38//1 33//1
f 34//1 37//1 38//1
f 35//1 37//1 34//1
f 35//1 36//1 37//1
f 49//2 50//2 48//2
f 48//2 50//2 51//2
f 48//2 51//2 47//2
f 47//2 51//2 52//2
f 47//2 52//2 46//2
f 46//2 52//2 70//2
f 70//2 52//2 69//2
f 46//2 70//2 71//2
f 69//2 52//2 68//2
f 46//2 71//2 72//2
f 68//2 52//2 67//2
f 46//2 72//2 73//2
f 67//2 52//2 53//2
f 67//2 53//2 66//2
f 46//2 73//2 74//2
f 46//2 74//2 75//2
f 66//2 53//2 65//2
f 46//2 75//2 45//2
f 45//2 75//2 76//2
f 65//2 53//2 64//2
f 45//2 76//2 77//2
f 64//2 53//2 63//2
f 63//2 53//2 62//2
f 62//2 53//2 54//2
f 45//2 77//2 78//2
f 45//2 78//2 43//2
f 62//2 54//2 61//2
f 43//2 78//2 79//2
f 61//2 54//2 60//2
f 43//2 79//2 80//2
f 60//2 54//2 59//2
f 43//2 80//2 81//2
f 59//2 54//2 55//2
f 43//2 81//2 44//2
f 59//2 55//2 58//2
f 44//2 81//2 82//2
f 44//2 82//2 84//2
f 82//2 83//2 84//2
f 58//2 55//2 57//2
f 57//2 55//2 56//2
f 1//3 84//3 83//3
f 1//3 83//3 2//3
f 84//4 1//4 42//4
f 84//4 42//4 44//4
f 2//5 83//5 82//5
f 2//5 82//5 3//5
f 3//6 82//6 81//6
f 3//6 81//6 4//6
f 4//7 81//7 80//7
f 4//7 80//7 5//7
f 5//8 80//8 79//8
f 5//8 79//8 6//8
f 6//9 79//9 78//9
f 6//10 78//10 7//10
f 7//11 78//11 77//11
f 7//11 77//11 8//11
f 8//12 77//12 76//12
f 8//13 76//13 9//13
f 9//14 76//14 75//14
f 9//14 75//14 10//14
f 10//15 75//15 74//15
f 10//15 74//15 11//15
f 11//16 74//16 73//16
f 11//16 73//16 12//16
f 12//17 73//17 72//17
f 12//17 72//17 13//17
f 13//18 72//18 71//18
f 13//18 71//18 14//18
f 14//19 71//19 70//19
f 14//19 70//19 15//19
f 15//20 70//20 69//20
f 15//20 69//20 16//20
f 16//21 69//21 68//21
f 16//21 68//21 17//21
f 17//22 68//22 67//22
f 17//23 67//23 18//23
f 18//24 67//24 66//24
f 18//24 66//24 19//24
f 19//25 66//25 65//25
f 19//25 65//25 20//25
f 20//26 65//26 64//26
f 20//26 64//26 21//26
f 21//27 64//27 63//27
f 21//27 63//27 22//27
f 22//28 63//28 62//28
f 22//28 62//28 23//28
f 23//29 62//29 61//29
f 23//29 61//29 24//29
f 24//30 61//30 60//30
f 24//30 60//30 25//30
f 25//31 60//31 59//31
f 25//31 59//31 26//31
f 26//32 59//32 58//32
f 26//32 58//32 27//32
f 27//4 58//4 57//4
f 27//4 57//4 28//4
f 28//3 57//3 56//3
f 28//3 56//3 29//3
f 29//5 56//5 55//5
f 29//5 55//5 30//5
f 30//33 55//33 54//33
f 30//33 54//33 31//33
f 31//34 54//34 53//34
f 31//34 53//34 32//34
f 32//35 53//35 52//35
f 32//35 52//35 33//35
f 33//36 52//36 51//36
f 33//36 51//36 34//36
f 34//37 51//37 50//37
f 34//37 50//37 35//37
f 35//38 50//38 49//38
f 35//38 49//38 36//38
f 36//39 49//39 48//39
f 36//39 48//39 37//39
f 37//40 48//40 47//40
f 37//40 47//40 38//40
f 38//41 47//41 46//41
f 38//41 46//41 39//41
f 39//42 46//42 45//42
f 39//42 45//42 40//42
f 40//43 45//43 43//43
f 40//43 43//43 41//43
f 41//44 43//44 44//44
f 41//44 44//44 42//44
